# xmcd
#
# Track frame offsets: 
#        150
#        28880
#        43672
#        56715
#        78415
#        104822
#        119365
#        134915
#        158287
#        169825
#        190762
#        214912
#        233167
#        248812
#        269302
#        289060
#        308105
#        318887
#
# Disc length: 4508 seconds
#
# Revision: 0
# Processed by: cddbd v1.5.2PL0 Copyright (c) Steve Scherf et al.
# Submitted via: ExactAudioCopyFreeDBPlugin 1.0
#
DISCID=08119a12
DTITLE=Various Artist - Chicago Blues
DYEAR=1900
DGENRE=Blues
TTITLE0=Buddy Guy - First Time I met The Blues
TTITLE1=Billy Boy Arnold and Tony McPhee - Don't Stay Out All Night
TTITLE2=Muddy Waters - Hoochie Coochie Man
TTITLE3=Buster Benton and  Carey Bell - Born With The Blues
TTITLE4=Buddy Guy and Junior Wells - Country Girl
TTITLE5=Billy Boy Arnold and Tony McPhee - I Wish You Would
TTITLE6=Bo Diddley - Road Runner
TTITLE7=Magic Slim - Born In Missouri
TTITLE8=Earl Hooker - The Leading Brand
TTITLE9=Mighty Joe Young - Why Do You Want To Hurt Me
TTITLE10=Jimmy Johnson - When My First Wife Quit Me
TTITLE11=Koko Taylor - Wang Dang Doodle
TTITLE12=Sunnyland Slim - I Had It So Hard
TTITLE13=Muddy Waters - She's Nineteen Years Old
TTITLE14=Fenton Robinson - You Don't Know What Love Is
TTITLE15=Willie Williams and Caret Bell - You Went Away Baby
TTITLE16=Jody Williams - Moaning For Molasses
TTITLE17=Byther Smith - I Don't Like To Travel
EXTD=
EXTT0=
EXTT1=
EXTT2=
EXTT3=
EXTT4=
EXTT5=
EXTT6=
EXTT7=
EXTT8=
EXTT9=
EXTT10=
EXTT11=
EXTT12=
EXTT13=
EXTT14=
EXTT15=
EXTT16=
EXTT17=
PLAYORDER=
